# Blender v2.79 (sub 0) OBJ File: ''
# www.blender.org
mtllib CoolDown_000000.mtl
o Circle
v 0.000000 -43.353146 0.000002
v -8.457779 -42.520126 0.000005
v -16.590532 -40.053082 0.000007
v -24.085718 -36.046822 0.000009
v -30.655302 -30.655302 0.000011
v -36.046825 -24.085714 0.000013
v -40.053082 -16.590530 0.000014
v -42.520126 -8.457781 0.000014
v -43.353146 -0.000003 0.000014
v -42.520130 8.457774 0.000013
v -40.053085 16.590525 0.000012
v -36.046825 24.085714 0.000011
v -30.655302 30.655302 0.000009
v -24.085714 36.046825 0.000006
v -16.590525 40.053089 0.000004
v -8.457768 42.520130 0.000001
v 0.000014 43.353146 -0.000002
v 8.457797 42.520123 -0.000005
v 16.590549 40.053074 -0.000007
v 24.085739 36.046810 -0.000009
v 30.655323 30.655285 -0.000011
v 36.046841 24.085691 -0.000013
v 40.053097 16.590498 -0.000014
v 42.520134 8.457742 -0.000014
v 43.353146 -0.000042 -0.000014
v 42.520119 -8.457824 -0.000013
v 40.053066 -16.590576 -0.000012
v 36.046795 -24.085762 -0.000011
v 30.655264 -30.655342 -0.000009
v 24.085669 -36.046856 -0.000006
v 16.590471 -40.053108 -0.000004
v 8.457714 -42.520138 -0.000001
v -0.000008 -0.000020 0.000000
v -8.457786 -42.520126 -19.820141
v -0.000006 -43.353146 -19.820143
v -16.590538 -40.053082 -19.820137
v -24.085724 -36.046822 -19.820135
v -30.655308 -30.655302 -19.820133
v -36.046833 -24.085714 -19.820131
v -40.053089 -16.590530 -19.820131
v -42.520134 -8.457782 -19.820131
v -43.353153 -0.000004 -19.820131
v -42.520138 8.457773 -19.820131
v -40.053093 16.590525 -19.820133
v -36.046833 24.085714 -19.820133
v -30.655308 30.655302 -19.820135
v -24.085720 36.046825 -19.820139
v -16.590530 40.053089 -19.820141
v -8.457775 42.520130 -19.820145
v 0.000008 43.353146 -19.820147
v 8.457790 42.520123 -19.820148
v 16.590544 40.053074 -19.820152
v 24.085733 36.046810 -19.820154
v 30.655317 30.655285 -19.820156
v 36.046833 24.085691 -19.820158
v 40.053089 16.590498 -19.820158
v 42.520126 8.457741 -19.820158
v 43.353138 -0.000043 -19.820158
v 42.520111 -8.457825 -19.820158
v 40.053059 -16.590576 -19.820156
v 36.046787 -24.085762 -19.820156
v 30.655258 -30.655342 -19.820154
v 24.085663 -36.046856 -19.820150
v 16.590466 -40.053108 -19.820148
v 8.457707 -42.520138 -19.820145
v -0.000014 -0.000021 -19.820145
vt 0.354185 0.019311
vt 0.500000 0.499997
vt 0.263209 0.056994
vt 0.450765 0.000100
vt 0.181333 0.111701
vt 0.111703 0.181330
vt 0.056995 0.263206
vt 0.019312 0.354181
vt 0.000100 0.450760
vt 0.000100 0.549231
vt 0.019310 0.645810
vt 0.056993 0.736786
vt 0.111702 0.818663
vt 0.181332 0.888293
vt 0.263208 0.943002
vt 0.354185 0.980686
vt 0.450765 0.999897
vt 0.549237 0.999896
vt 0.645817 0.980685
vt 0.736792 0.943002
vt 0.818669 0.888294
vt 0.888298 0.818664
vt 0.943006 0.736787
vt 0.980690 0.645810
vt 0.999900 0.549230
vt 0.999899 0.450758
vt 0.980688 0.354180
vt 0.943005 0.263205
vt 0.888297 0.181331
vt 0.818667 0.111701
vt 0.736791 0.056994
vt 0.645815 0.019311
vt 0.549236 0.000100
vt 0.354185 0.019311
vt 0.263209 0.056994
vt 0.500000 0.499997
vt 0.450765 0.000100
vt 0.181333 0.111701
vt 0.111703 0.181330
vt 0.056995 0.263206
vt 0.019312 0.354181
vt 0.000100 0.450760
vt 0.000100 0.549231
vt 0.019310 0.645810
vt 0.056993 0.736786
vt 0.111702 0.818663
vt 0.181332 0.888293
vt 0.263208 0.943002
vt 0.354185 0.980686
vt 0.450765 0.999897
vt 0.549237 0.999896
vt 0.645817 0.980685
vt 0.736792 0.943002
vt 0.818669 0.888294
vt 0.888298 0.818664
vt 0.943006 0.736787
vt 0.980690 0.645810
vt 0.999900 0.549230
vt 0.999899 0.450758
vt 0.980688 0.354180
vt 0.943005 0.263205
vt 0.888297 0.181331
vt 0.818667 0.111701
vt 0.736791 0.056994
vt 0.645815 0.019311
vt 0.549236 0.000100
vn 0.0000 0.0000 1.0000
vn -0.0000 -0.0000 -1.0000
vn 0.9569 -0.2903 -0.0000
vn -0.6344 0.7730 0.0000
vn 0.8819 -0.4714 -0.0000
vn -0.4714 0.8819 0.0000
vn -0.0980 -0.9952 -0.0000
vn 0.7730 -0.6344 -0.0000
vn -0.2903 0.9569 0.0000
vn -0.2903 -0.9569 0.0000
vn 0.6344 -0.7730 -0.0000
vn -0.0980 0.9952 0.0000
vn -0.4714 -0.8819 0.0000
vn 0.4714 -0.8819 -0.0000
vn 0.0980 0.9952 0.0000
vn -0.6344 -0.7730 0.0000
vn 0.2903 -0.9569 -0.0000
vn 0.2903 0.9569 -0.0000
vn -0.7730 -0.6344 0.0000
vn 0.0980 -0.9952 -0.0000
vn 0.4714 0.8819 -0.0000
vn -0.8819 -0.4714 0.0000
vn 0.6344 0.7730 -0.0000
vn -0.9569 -0.2903 0.0000
vn 0.7730 0.6344 -0.0000
vn -0.9952 -0.0980 0.0000
vn 0.8819 0.4714 -0.0000
vn -0.9952 0.0980 0.0000
vn 0.9569 0.2903 -0.0000
vn -0.9569 0.2903 0.0000
vn 0.9952 0.0980 -0.0000
vn -0.8819 0.4714 0.0000
vn 0.9952 -0.0980 -0.0000
vn -0.7730 0.6344 0.0000
usemtl None
s off
f 3/1/1 33/2/1 4/3/1
f 3/1/1 2/4/1 33/2/1
f 4/3/1 33/2/1 5/5/1
f 5/5/1 33/2/1 6/6/1
f 6/6/1 33/2/1 7/7/1
f 7/7/1 33/2/1 8/8/1
f 8/8/1 33/2/1 9/9/1
f 9/9/1 33/2/1 10/10/1
f 10/10/1 33/2/1 11/11/1
f 11/11/1 33/2/1 12/12/1
f 12/12/1 33/2/1 13/13/1
f 13/13/1 33/2/1 14/14/1
f 14/14/1 33/2/1 15/15/1
f 15/15/1 33/2/1 16/16/1
f 16/16/1 33/2/1 17/17/1
f 17/17/1 33/2/1 18/18/1
f 18/18/1 33/2/1 19/19/1
f 33/2/1 20/20/1 19/19/1
f 20/20/1 33/2/1 21/21/1
f 33/2/1 22/22/1 21/21/1
f 33/2/1 23/23/1 22/22/1
f 23/23/1 33/2/1 24/24/1
f 24/24/1 33/2/1 25/25/1
f 25/25/1 33/2/1 26/26/1
f 26/26/1 33/2/1 27/27/1
f 27/27/1 33/2/1 28/28/1
f 28/28/1 33/2/1 29/29/1
f 29/29/1 33/2/1 30/30/1
f 30/30/1 33/2/1 31/31/1
f 33/2/1 32/32/1 31/31/1
f 32/32/1 33/2/1 1/33/1
f 33/2/1 2/4/1 1/33/1
f 36/34/2 37/35/2 66/36/2
f 36/34/2 66/36/2 34/37/2
f 37/35/2 38/38/2 66/36/2
f 38/38/2 39/39/2 66/36/2
f 39/39/2 40/40/2 66/36/2
f 40/40/2 41/41/2 66/36/2
f 41/41/2 42/42/2 66/36/2
f 42/42/2 43/43/2 66/36/2
f 43/43/2 44/44/2 66/36/2
f 44/44/2 45/45/2 66/36/2
f 45/45/2 46/46/2 66/36/2
f 46/46/2 47/47/2 66/36/2
f 47/47/2 48/48/2 66/36/2
f 48/48/2 49/49/2 66/36/2
f 49/49/2 50/50/2 66/36/2
f 50/50/2 51/51/2 66/36/2
f 51/51/2 52/52/2 66/36/2
f 66/36/2 52/52/2 53/53/2
f 53/53/2 54/54/2 66/36/2
f 66/36/2 54/54/2 55/55/2
f 66/36/2 55/55/2 56/56/2
f 56/56/2 57/57/2 66/36/2
f 57/57/2 58/58/2 66/36/2
f 58/58/2 59/59/2 66/36/2
f 59/59/2 60/60/2 66/36/2
f 60/60/2 61/61/2 66/36/2
f 61/61/2 62/62/2 66/36/2
f 62/62/2 63/63/2 66/36/2
f 63/63/2 64/64/2 66/36/2
f 66/36/2 64/64/2 65/65/2
f 65/65/2 35/66/2 66/36/2
f 66/36/2 35/66/2 34/37/2
f 26/26/3 27/27/3 60/60/3
f 13/13/4 14/14/4 47/47/4
f 27/27/5 28/28/5 61/61/5
f 14/14/6 15/15/6 48/48/6
f 1/33/7 2/4/7 34/37/7
f 28/28/8 29/29/8 62/62/8
f 15/15/9 16/16/9 49/49/9
f 2/4/10 3/1/10 36/34/10
f 29/29/11 30/30/11 63/63/11
f 16/16/12 17/17/12 50/50/12
f 3/1/13 4/3/13 37/35/13
f 30/30/14 31/31/14 64/64/14
f 17/17/15 18/18/15 51/51/15
f 4/3/16 5/5/16 38/38/16
f 31/31/17 32/32/17 65/65/17
f 18/18/18 19/19/18 52/52/18
f 5/5/19 6/6/19 39/39/19
f 32/32/20 1/33/20 35/66/20
f 19/19/21 20/20/21 53/53/21
f 6/6/22 7/7/22 40/40/22
f 20/20/23 21/21/23 54/54/23
f 7/7/24 8/8/24 41/41/24
f 21/21/25 22/22/25 55/55/25
f 8/8/26 9/9/26 42/42/26
f 22/22/27 23/23/27 56/56/27
f 9/9/28 10/10/28 43/43/28
f 23/23/29 24/24/29 57/57/29
f 10/10/30 11/11/30 44/44/30
f 24/24/31 25/25/31 58/58/31
f 11/11/32 12/12/32 45/45/32
f 25/25/33 26/26/33 59/59/33
f 12/12/34 13/13/34 46/46/34
f 26/26/3 60/60/3 59/59/3
f 13/13/4 47/47/4 46/46/4
f 27/27/5 61/61/5 60/60/5
f 14/14/6 48/48/6 47/47/6
f 1/33/7 34/37/7 35/66/7
f 28/28/8 62/62/8 61/61/8
f 15/15/9 49/49/9 48/48/9
f 2/4/10 36/34/10 34/37/10
f 29/29/11 63/63/11 62/62/11
f 16/16/12 50/50/12 49/49/12
f 3/1/13 37/35/13 36/34/13
f 30/30/14 64/64/14 63/63/14
f 17/17/15 51/51/15 50/50/15
f 4/3/16 38/38/16 37/35/16
f 31/31/17 65/65/17 64/64/17
f 18/18/18 52/52/18 51/51/18
f 5/5/19 39/39/19 38/38/19
f 32/32/20 35/66/20 65/65/20
f 19/19/21 53/53/21 52/52/21
f 6/6/22 40/40/22 39/39/22
f 20/20/23 54/54/23 53/53/23
f 7/7/24 41/41/24 40/40/24
f 21/21/25 55/55/25 54/54/25
f 8/8/26 42/42/26 41/41/26
f 22/22/27 56/56/27 55/55/27
f 9/9/28 43/43/28 42/42/28
f 23/23/29 57/57/29 56/56/29
f 10/10/30 44/44/30 43/43/30
f 24/24/31 58/58/31 57/57/31
f 11/11/32 45/45/32 44/44/32
f 25/25/33 59/59/33 58/58/33
f 12/12/34 46/46/34 45/45/34
