# Blender v2.79 (sub 0) OBJ File: ''
# www.blender.org
mtllib Health_000001.mtl
o Cube_Cube.004
v 0.000000 27.484520 54.462555
v 0.000000 -29.601799 -57.442940
v 0.000000 -29.601837 54.462540
v 0.000000 27.484558 -57.442924
v 426.732300 -29.601799 -57.442940
v 426.732300 27.484558 -57.442924
v 426.732300 -29.601837 54.462540
v 426.732300 27.484520 54.462555
vt 0.000087 0.250043
vt 0.250043 0.500000
vt 0.000087 0.500000
vt 0.250043 0.250043
vt 0.500000 0.500000
vt 0.500000 0.250043
vt 0.749957 0.500000
vt 0.500000 0.999913
vt 0.250043 0.749957
vt 0.500000 0.749957
vt 0.500000 0.000087
vt 0.749957 0.250043
vt 0.250043 0.999913
vt 0.250043 0.000087
vn -1.0000 0.0000 0.0000
vn 0.0000 0.0000 -1.0000
vn 1.0000 -0.0000 0.0000
vn 0.0000 -0.0000 1.0000
vn 0.0000 -1.0000 -0.0000
vn 0.0000 1.0000 0.0000
usemtl None.004
s 1
f 1/1/1 2/2/1 3/3/1
f 4/4/2 5/5/2 2/2/2
f 6/6/3 7/7/3 5/5/3
f 8/8/4 3/9/4 7/10/4
f 5/5/5 3/9/5 2/2/5
f 4/4/6 8/11/6 6/6/6
f 1/1/1 4/4/1 2/2/1
f 4/4/2 6/6/2 5/5/2
f 6/6/3 8/12/3 7/7/3
f 8/8/4 1/13/4 3/9/4
f 5/5/5 7/10/5 3/9/5
f 4/4/6 1/14/6 8/11/6
o Cube_Cube.003
v 0.000000 27.484529 54.462551
v 0.000000 -29.601809 -57.442936
v 0.000000 -29.601828 54.462543
v 0.000000 27.484549 -57.442928
v 4.176332 -29.601809 -57.442936
v 4.176332 27.484549 -57.442928
v 4.176332 -29.601828 54.462543
v 4.176332 27.484529 54.462551
vt 0.000087 0.250043
vt 0.250043 0.500000
vt 0.000087 0.500000
vt 0.250043 0.250043
vt 0.500000 0.500000
vt 0.500000 0.250043
vt 0.749957 0.500000
vt 0.500000 0.999913
vt 0.250043 0.749957
vt 0.500000 0.749957
vt 0.500000 0.000087
vt 0.749957 0.250043
vt 0.250043 0.999913
vt 0.250043 0.000087
vn -1.0000 0.0000 0.0000
vn 0.0000 0.0000 -1.0000
vn 1.0000 0.0000 0.0000
vn 0.0000 -0.0000 1.0000
vn 0.0000 -1.0000 -0.0000
vn 0.0000 1.0000 0.0000
usemtl None.003
s 1
f 9/15/7 10/16/7 11/17/7
f 12/18/8 13/19/8 10/16/8
f 14/20/9 15/21/9 13/19/9
f 16/22/10 11/23/10 15/24/10
f 13/19/11 11/23/11 10/16/11
f 12/18/12 16/25/12 14/20/12
f 9/15/7 12/18/7 10/16/7
f 12/18/8 14/20/8 13/19/8
f 14/20/9 16/26/9 15/21/9
f 16/22/10 9/27/10 11/23/10
f 13/19/11 15/24/11 11/23/11
f 12/18/12 9/28/12 16/25/12
